<?xml version="1.0" standalone="yes"?>

<svg version="1.1" viewBox="0.0 0.0 100.0 100.0" fill="none" stroke="none" stroke-linecap="square" stroke-miterlimit="10" xmlns="http://www.w3.org/2000/svg" xmlns:xlink="http://www.w3.org/1999/xlink"><clipPath id="p.0"><path d="m0 0l100.0 0l0 100.0l-100.0 0l0 -100.0z" clip-rule="nonzero"></path></clipPath><g clip-path="url(#p.0)"><path fill="#000000" fill-opacity="0.0" d="m0 0l100.0 0l0 100.0l-100.0 0z" fill-rule="evenodd"></path><path fill="#000000" fill-opacity="0.0" d="m14.220472 50.0l0 0c0 -19.95183 16.145952 -36.125984 36.062996 -36.125984l0 0c9.564499 0 18.737263 3.80612 25.500385 10.581057c6.7631226 6.774935 10.562607 15.96372 10.562607 25.544928l0 0c0 19.951828 -16.14595 36.125984 -36.062992 36.125984l0 0c-19.917042 0 -36.062996 -16.174156 -36.062996 -36.125984z" fill-rule="evenodd"></path><path stroke="#3a91fd" stroke-width="8.0" stroke-linejoin="round" stroke-linecap="butt" d="m14.220472 50.0l0 0c0 -19.95183 16.145952 -36.125984 36.062996 -36.125984l0 0c9.564499 0 18.737263 3.80612 25.500385 10.581057c6.7631226 6.774935 10.562607 15.96372 10.562607 25.544928l0 0c0 19.951828 -16.14595 36.125984 -36.062992 36.125984l0 0c-19.917042 0 -36.062996 -16.174156 -36.062996 -36.125984z" fill-rule="evenodd"></path><path fill="#3a91fd" d="m33.989502 48.322834l16.236221 -19.653543l16.236221 19.653543z" fill-rule="evenodd"></path><path fill="#3a91fd" d="m46.24147 48.322834l7.7480316 0l0 23.68504l-7.7480316 0z" fill-rule="evenodd"></path></g></svg>

