<?xml version="1.0" standalone="yes"?>

<svg version="1.1" viewBox="0.0 0.0 100.0 100.0" fill="none" stroke="none" stroke-linecap="square" stroke-miterlimit="10" xmlns="http://www.w3.org/2000/svg" xmlns:xlink="http://www.w3.org/1999/xlink"><clipPath id="p.0"><path d="m0 0l100.0 0l0 100.0l-100.0 0l0 -100.0z" clip-rule="nonzero"></path></clipPath><g clip-path="url(#p.0)"><path fill="#000000" fill-opacity="0.0" d="m0 0l100.0 0l0 100.0l-100.0 0z" fill-rule="evenodd"></path><path fill="#cccccc" d="m12.020997 20.228346l55.84252 0l0 3.370079l-55.84252 0z" fill-rule="evenodd"></path><path fill="#cccccc" d="m12.020997 34.26509l55.84252 0l0 3.370079l-55.84252 0z" fill-rule="evenodd"></path><path fill="#cccccc" d="m12.020997 48.301838l55.84252 0l0 3.370079l-55.84252 0z" fill-rule="evenodd"></path><path fill="#cccccc" d="m12.020997 62.33858l37.54331 0l0 3.3700829l-37.54331 0z" fill-rule="evenodd"></path><path fill="#cccccc" d="m12.020997 76.37533l39.43307 0l0 3.370079l-39.43307 0z" fill-rule="evenodd"></path><path fill="#ff4f3d" d="m54.335957 67.96326l0 0c0 -6.505657 5.2809258 -11.77953 11.795277 -11.77953l0 0c3.1283035 0 6.128479 1.2410545 8.340523 3.450142c2.2120438 2.2090912 3.45475 5.2052574 3.45475 8.329388l0 0c0 6.5056534 -5.280922 11.779526 -11.795273 11.779526l0 0c-6.514351 0 -11.795277 -5.2738724 -11.795277 -11.779526z" fill-rule="evenodd"></path><path fill="#ff4f3d" d="m72.13123 19.884514l5.795273 3.115425l0 44.855766l-5.795273 3.115425z" fill-rule="evenodd"></path><path fill="#ff4f3d" d="m76.63517 22.312336l11.685043 6.6094093l0 9.926025l-11.685043 -6.6094093z" fill-rule="evenodd"></path><path fill="#cccccc" d="m51.446194 79.67191l0 -3.370079l2.8976402 3.370079z" fill-rule="evenodd"></path><path fill="#cccccc" d="m47.53806 62.307087l3.0866127 0l-3.0866127 3.4330711z" fill-rule="evenodd"></path></g></svg>

