<?xml version="1.0" standalone="yes"?>

<svg version="1.1" viewBox="0.0 0.0 100.0 100.0" fill="none" stroke="none" stroke-linecap="square" stroke-miterlimit="10" xmlns="http://www.w3.org/2000/svg" xmlns:xlink="http://www.w3.org/1999/xlink"><clipPath id="p.0"><path d="m0 0l100.0 0l0 100.0l-100.0 0l0 -100.0z" clip-rule="nonzero"></path></clipPath><g clip-path="url(#p.0)"><path fill="#000000" fill-opacity="0.0" d="m0 0l100.0 0l0 100.0l-100.0 0z" fill-rule="evenodd"></path><path fill="#000000" fill-opacity="0.0" d="m17.622047 46.244095l0 0c0 -17.812271 14.496101 -32.25197 32.377953 -32.25197l0 0c8.587166 0 16.822624 3.3979654 22.894669 9.446383c6.0720444 6.048418 9.483284 14.251833 9.483284 22.805586l0 0c0 17.812271 -14.496101 32.25197 -32.377953 32.25197l0 0c-17.881851 0 -32.377953 -14.439697 -32.377953 -32.25197z" fill-rule="evenodd"></path><path stroke="#a5dafd" stroke-width="4.0" stroke-linejoin="round" stroke-linecap="butt" d="m17.622047 46.244095l0 0c0 -17.812271 14.496101 -32.25197 32.377953 -32.25197l0 0c8.587166 0 16.822624 3.3979654 22.894669 9.446383c6.0720444 6.048418 9.483284 14.251833 9.483284 22.805586l0 0c0 17.812271 -14.496101 32.25197 -32.377953 32.25197l0 0c-17.881851 0 -32.377953 -14.439697 -32.377953 -32.25197z" fill-rule="evenodd"></path><path fill="#000000" fill-opacity="0.0" d="m26.963255 46.244095l0 0c0 -12.706898 10.441988 -23.007874 23.322836 -23.007874l0 0c6.1856003 0 12.117851 2.424036 16.491734 6.7388496c4.3738785 4.3148117 6.8311005 10.166958 6.8311005 16.269024l0 0c0 12.706898 -10.44199 23.007874 -23.322834 23.007874l0 0c-12.880848 0 -23.322836 -10.300976 -23.322836 -23.007874z" fill-rule="evenodd"></path><path stroke="#3ec3fd" stroke-width="4.0" stroke-linejoin="round" stroke-linecap="butt" d="m26.963255 46.244095l0 0c0 -12.706898 10.441988 -23.007874 23.322836 -23.007874l0 0c6.1856003 0 12.117851 2.424036 16.491734 6.7388496c4.3738785 4.3148117 6.8311005 10.166958 6.8311005 16.269024l0 0c0 12.706898 -10.44199 23.007874 -23.322834 23.007874l0 0c-12.880848 0 -23.322836 -10.300976 -23.322836 -23.007874z" fill-rule="evenodd"></path><path fill="#000000" fill-opacity="0.0" d="m37.278214 46.244095l0 0c0 -7.3145103 5.823826 -13.244095 13.007877 -13.244095l0 0c3.4499016 0 6.758503 1.3953552 9.197956 3.8791046c2.4394493 2.4837494 3.8099174 5.852436 3.8099174 9.36499l0 0c0 7.3145103 -5.823826 13.244095 -13.007874 13.244095l0 0c-7.1840515 0 -13.007877 -5.9295845 -13.007877 -13.244095z" fill-rule="evenodd"></path><path stroke="#17a2fd" stroke-width="4.0" stroke-linejoin="round" stroke-linecap="butt" d="m37.278214 46.244095l0 0c0 -7.3145103 5.823826 -13.244095 13.007877 -13.244095l0 0c3.4499016 0 6.758503 1.3953552 9.197956 3.8791046c2.4394493 2.4837494 3.8099174 5.852436 3.8099174 9.36499l0 0c0 7.3145103 -5.823826 13.244095 -13.007874 13.244095l0 0c-7.1840515 0 -13.007877 -5.9295845 -13.007877 -13.244095z" fill-rule="evenodd"></path><path fill="#1117cc" d="m27.976377 88.091866l17.918676 -41.732285l5.671875 0l-17.918674 41.732285z" fill-rule="evenodd"></path><path fill="#1117cc" d="m71.95538 88.091866l-17.918678 -41.732285l-5.671875 0l17.91867 41.732285z" fill-rule="evenodd"></path><path fill="#1117cc" d="m44.047245 46.244095l0 0c0 -3.1919441 2.6651382 -5.7795296 5.952755 -5.7795296l0 0c1.5787697 0 3.0928764 0.6089134 4.2092323 1.6927872c1.1163597 1.0838699 1.7435226 2.553917 1.7435226 4.0867424l0 0c0 3.1919441 -2.6651382 5.7795258 -5.952755 5.7795258l0 0c-3.2876167 0 -5.952755 -2.5875816 -5.952755 -5.7795258z" fill-rule="evenodd"></path></g></svg>

